<svg width="32" height="32" viewBox="0 0 32 32" fill="none" xmlns="http://www.w3.org/2000/svg">
<path d="M24 31C25.8565 31 27.637 30.2625 28.9497 28.9497C30.2625 27.637 31 25.8565 31 24C31 22.1435 30.2625 20.363 28.9497 19.0503C27.637 17.7375 25.8565 17 24 17H8C6.14348 17 4.36301 17.7375 3.05025 19.0503C1.7375 20.363 1 22.1435 1 24C1 25.8565 1.7375 27.637 3.05025 28.9497C4.36301 30.2625 6.14348 31 8 31H24ZM29 24C29 24.9889 28.7068 25.9556 28.1573 26.7779C27.6079 27.6001 26.827 28.241 25.9134 28.6194C24.9998 28.9978 23.9945 29.0969 23.0245 28.9039C22.0546 28.711 21.1637 28.2348 20.4645 27.5355C19.7652 26.8363 19.289 25.9454 19.0961 24.9755C18.9031 24.0055 19.0022 23.0002 19.3806 22.0866C19.759 21.173 20.3999 20.3921 21.2221 19.8427C22.0444 19.2932 23.0111 19 24 19C25.3256 19.0016 26.5965 19.5288 27.5338 20.4662C28.4712 21.4035 28.9984 22.6744 29 24ZM3 24C3.00156 22.6744 3.52884 21.4035 4.46619 20.4662C5.40353 19.5288 6.6744 19.0016 8 19H19.1107C18.4427 19.6502 17.9118 20.4276 17.5493 21.2864C17.1868 22.1451 17 23.0678 17 24C17 24.9322 17.1868 25.8549 17.5493 26.7136C17.9118 27.5724 18.4427 28.3498 19.1107 29H8C6.6744 28.9984 5.40353 28.4712 4.46619 27.5338C3.52884 26.5965 3.00156 25.3256 3 24ZM24 1H8C6.14348 1 4.36301 1.7375 3.05025 3.05025C1.7375 4.36301 1 6.14348 1 8C1 9.85652 1.7375 11.637 3.05025 12.9497C4.36301 14.2625 6.14348 15 8 15H24C25.8565 15 27.637 14.2625 28.9497 12.9497C30.2625 11.637 31 9.85652 31 8C31 6.14348 30.2625 4.36301 28.9497 3.05025C27.637 1.7375 25.8565 1 24 1ZM3 8C3 7.01109 3.29324 6.04439 3.84265 5.22215C4.39206 4.3999 5.17295 3.75904 6.08658 3.3806C7.00021 3.00216 8.00555 2.90315 8.97545 3.09607C9.94536 3.289 10.8363 3.7652 11.5355 4.46447C12.2348 5.16373 12.711 6.05464 12.9039 7.02455C13.0969 7.99445 12.9978 8.99979 12.6194 9.91342C12.241 10.827 11.6001 11.6079 10.7779 12.1573C9.95561 12.7068 8.98891 13 8 13C6.6744 12.9984 5.40353 12.4712 4.46619 11.5338C3.52884 10.5965 3.00156 9.3256 3 8ZM24 13H12.8897C13.5575 12.3498 14.0883 11.5723 14.4508 10.7136C14.8133 9.8548 15 8.93212 15 8C15 7.06788 14.8133 6.1452 14.4508 5.28644C14.0883 4.42768 13.5575 3.65023 12.8897 3H24C25.3261 3 26.5979 3.52678 27.5355 4.46447C28.4732 5.40215 29 6.67392 29 8C29 9.32608 28.4732 10.5979 27.5355 11.5355C26.5979 12.4732 25.3261 13 24 13Z" fill="white"/>
</svg>
