<svg width="32" height="32" viewBox="0 0 32 32" fill="none" xmlns="http://www.w3.org/2000/svg">
<path d="M28 2C29.0544 2 29.9182 2.81588 29.9945 3.85074L30 4V28C30 29.0544 29.1841 29.9182 28.1493 29.9945L28 30H4C2.94564 30 2.08183 29.1841 2.00549 28.1493L2 28V4C2 2.94564 2.81588 2.08183 3.85074 2.00549L4 2H28ZM13.585 17H4V28H15V18.414L10.7071 22.7071L9.29289 21.2929L13.585 17ZM28 17H18.415L22.7071 21.2929L21.2929 22.7071L17 18.414V28H28V17ZM15 4H4V15L7.53577 15.0011C7.19503 14.4125 7 13.729 7 13C7 10.7909 8.79086 9 11 9C12.0347 9 12.9884 9.35717 13.816 10.1593C14.11 10.4443 14.4977 11.0142 14.9999 11.8959L15 4ZM21 11C20.4672 11 20.0159 11.169 19.576 11.5954C19.37 11.7951 18.9513 12.4721 18.3554 13.5805L18.1077 14.0468L17.615 15H21C22.0016 15 22.8313 14.2637 22.9772 13.3028L22.9945 13.1493L23 13C23 11.8954 22.1046 11 21 11ZM28 4H17L17.0007 11.8949C17.5026 11.0138 17.8901 10.4442 18.184 10.1593C19.0116 9.35717 19.9653 9 21 9C23.2091 9 25 10.7909 25 13C25 13.729 24.805 14.4125 24.4642 15.0011L28 15V4ZM11 11C9.89543 11 9 11.8954 9 13L9.00549 13.1493C9.08183 14.1841 9.94564 15 11 15H14.385L13.8923 14.0468L13.5278 13.3646C12.9938 12.3839 12.6163 11.7818 12.424 11.5954C11.9841 11.169 11.5328 11 11 11Z" fill="white"/>
</svg>
