<svg width="32" height="32" viewBox="0 0 32 32" fill="none" xmlns="http://www.w3.org/2000/svg">
<path d="M16 0.797852L16.555 1.16785C20.398 3.72985 24.208 4.99985 28 4.99985H29V17.4999C29 25.5739 23.21 30.9999 16 30.9999C8.79 30.9999 3 25.5739 3 17.4999V4.99985H4C7.792 4.99985 11.602 3.72985 15.445 1.16785L16 0.797852ZM15 3.80285C11.8 5.66885 8.582 6.72285 5.352 6.95185L5 6.97185V17.4999C5 24.0579 9.347 28.4909 15 28.9589V3.80285ZM17 3.80285V28.9599C22.654 28.4918 27 24.0589 27 17.5009V6.97185L26.648 6.95185C23.418 6.72185 20.2 5.66985 17.001 3.80385L17 3.80285Z" fill="white"/>
</svg>
